<svg width="58" height="507" viewBox="0 0 58 507" fill="none" xmlns="http://www.w3.org/2000/svg">
<rect width="58" height="2" fill="black" fill-opacity="0.07"/>
<line x1="28.5" y1="2" x2="28.5" y2="187" stroke="black" stroke-opacity="0.07"/>
<line x1="28.5" y1="284" x2="28.5" y2="507" stroke="black" stroke-opacity="0.07"/>
<path d="M35.171 260.288C35.171 261.2 35.1013 261.941 34.962 262.511C34.8227 263.068 34.6453 263.55 34.43 263.955L33.252 263.575C33.4293 263.208 33.5813 262.764 33.708 262.245C33.8347 261.726 33.898 261.13 33.898 260.459C33.898 260.003 33.8537 259.585 33.765 259.205C33.6763 258.812 33.5433 258.477 33.366 258.198C33.176 257.919 32.9353 257.704 32.644 257.552C32.3527 257.387 32.0043 257.305 31.599 257.305C31.1937 257.305 30.858 257.387 30.592 257.552C30.326 257.717 30.098 257.945 29.908 258.236C29.718 258.515 29.5597 258.838 29.433 259.205C29.2937 259.572 29.1607 259.959 29.034 260.364C28.9073 260.769 28.7553 261.181 28.578 261.599C28.4007 262.017 28.179 262.403 27.913 262.758C27.6343 263.113 27.2923 263.404 26.887 263.632C26.4817 263.847 25.9813 263.955 25.386 263.955C24.9047 263.955 24.4613 263.879 24.056 263.727C23.638 263.562 23.2833 263.309 22.992 262.967C22.688 262.625 22.4537 262.188 22.289 261.656C22.1117 261.124 22.023 260.484 22.023 259.737C22.023 259.104 22.0863 258.527 22.213 258.008C22.327 257.489 22.4917 257.02 22.707 256.602L23.885 256.982C23.7077 257.349 23.5683 257.774 23.467 258.255C23.353 258.736 23.296 259.23 23.296 259.737C23.296 260.738 23.4923 261.46 23.885 261.903C24.265 262.346 24.759 262.568 25.367 262.568C25.7343 262.568 26.0447 262.492 26.298 262.34C26.5513 262.188 26.773 261.985 26.963 261.732C27.1403 261.466 27.2987 261.162 27.438 260.82C27.5773 260.465 27.7103 260.092 27.837 259.699C27.989 259.243 28.16 258.793 28.35 258.35C28.5273 257.894 28.7617 257.489 29.053 257.134C29.3317 256.767 29.68 256.475 30.098 256.26C30.5033 256.032 31.01 255.918 31.618 255.918C32.226 255.918 32.7517 256.026 33.195 256.241C33.6383 256.456 34.0057 256.76 34.297 257.153C34.5883 257.533 34.81 257.995 34.962 258.54C35.1013 259.072 35.171 259.655 35.171 260.288ZM23.315 248.212C23.315 249.669 23.771 250.809 24.683 251.632C25.595 252.443 26.8997 252.848 28.597 252.848C30.269 252.848 31.5673 252.443 32.492 251.632C33.404 250.822 33.86 249.688 33.86 248.231C33.86 247.193 33.6573 246.255 33.252 245.419L34.468 245.058C34.696 245.514 34.8733 246.002 35 246.521C35.114 247.028 35.171 247.604 35.171 248.25C35.171 249.289 35.0127 250.188 34.696 250.948C34.3793 251.696 33.936 252.316 33.366 252.81C32.796 253.304 32.1057 253.672 31.295 253.912C30.4843 254.153 29.585 254.273 28.597 254.273C27.6343 254.273 26.7477 254.14 25.937 253.874C25.1263 253.608 24.436 253.222 23.866 252.715C23.2833 252.196 22.8337 251.563 22.517 250.815C22.1877 250.068 22.023 249.207 22.023 248.231C22.023 247.573 22.08 247.003 22.194 246.521C22.2953 246.04 22.441 245.59 22.631 245.172L23.847 245.533C23.4923 246.306 23.315 247.199 23.315 248.212ZM25.994 234.014C26.9187 234.014 27.7167 234.286 28.388 234.831C29.0593 235.363 29.509 236.091 29.737 237.016L35 233.919L35 235.496L29.889 238.498L29.889 238.517L29.889 241.329L35 241.329L35 242.754L22.194 242.754L22.194 238.213C22.194 237.554 22.2953 236.965 22.498 236.446C22.688 235.914 22.954 235.47 23.296 235.116C23.638 234.761 24.0433 234.489 24.512 234.299C24.968 234.109 25.462 234.014 25.994 234.014ZM25.994 235.458C25.234 235.458 24.6387 235.692 24.208 236.161C23.7647 236.629 23.543 237.313 23.543 238.213L23.543 241.329L28.559 241.329L28.559 238.327C28.559 237.427 28.331 236.724 27.875 236.218C27.419 235.711 26.792 235.458 25.994 235.458ZM33.974 226.735C33.974 226.026 33.8537 225.412 33.613 224.892C33.3597 224.36 32.9987 223.917 32.53 223.562C32.0613 223.208 31.4977 222.948 30.839 222.783C30.1803 222.606 29.433 222.517 28.597 222.517C27.761 222.517 27.0137 222.606 26.355 222.783C25.6963 222.948 25.1327 223.208 24.664 223.562C24.1953 223.917 23.8407 224.36 23.6 224.892C23.3467 225.412 23.22 226.026 23.22 226.735C23.22 227.445 23.3467 228.065 23.6 228.597C23.8407 229.129 24.1953 229.573 24.664 229.927C25.1327 230.282 25.6963 230.548 26.355 230.725C27.0137 230.89 27.761 230.972 28.597 230.972C29.433 230.972 30.1803 230.89 30.839 230.725C31.4977 230.548 32.0613 230.282 32.53 229.927C32.9987 229.573 33.3597 229.129 33.613 228.597C33.8537 228.065 33.974 227.445 33.974 226.735ZM35.171 226.735C35.171 227.711 35.0063 228.553 34.677 229.262C34.3477 229.972 33.8917 230.561 33.309 231.029C32.7137 231.498 32.017 231.846 31.219 232.074C30.4083 232.29 29.5343 232.397 28.597 232.397C27.6597 232.397 26.792 232.29 25.994 232.074C25.1833 231.846 24.4867 231.498 23.904 231.029C23.3087 230.561 22.8463 229.972 22.517 229.262C22.1877 228.553 22.023 227.711 22.023 226.735C22.023 225.76 22.1877 224.918 22.517 224.208C22.8463 223.499 23.3087 222.91 23.904 222.441C24.4867 221.973 25.1833 221.631 25.994 221.415C26.792 221.187 27.6597 221.073 28.597 221.073C29.5343 221.073 30.4083 221.187 31.219 221.415C32.017 221.631 32.7137 221.973 33.309 222.441C33.8917 222.91 34.3477 223.499 34.677 224.208C35.0063 224.918 35.171 225.76 35.171 226.735ZM22.194 218.632L22.194 217.188L33.67 217.188L33.67 211.07L35 211.07L35 218.632L22.194 218.632ZM22.194 208.947L22.194 207.503L33.67 207.503L33.67 201.385L35 201.385L35 208.947L22.194 208.947Z" fill="#CCCCCC"/>
</svg>
